<?xml version="1.0" encoding="UTF-8" standalone="no"?>
<!-- Created with Inkscape (http://www.inkscape.org/) -->

<svg
   width="210mm"
   height="297mm"
   viewBox="0 0 210 297"
   version="1.1"
   id="svg5"
   inkscape:version="1.2.2 (732a01da63, 2022-12-09)"
   sodipodi:docname="shift_key.svg"
   xml:space="preserve"
   xmlns:inkscape="http://www.inkscape.org/namespaces/inkscape"
   xmlns:sodipodi="http://sodipodi.sourceforge.net/DTD/sodipodi-0.dtd"
   xmlns="http://www.w3.org/2000/svg"
   xmlns:svg="http://www.w3.org/2000/svg"><sodipodi:namedview
     id="namedview7"
     pagecolor="#505050"
     bordercolor="#eeeeee"
     borderopacity="1"
     inkscape:showpageshadow="0"
     inkscape:pageopacity="0"
     inkscape:pagecheckerboard="0"
     inkscape:deskcolor="#505050"
     inkscape:document-units="mm"
     showgrid="false"
     inkscape:zoom="0.72515432"
     inkscape:cx="165.48202"
     inkscape:cy="519.19983"
     inkscape:window-width="1920"
     inkscape:window-height="1001"
     inkscape:window-x="-9"
     inkscape:window-y="-9"
     inkscape:window-maximized="1"
     inkscape:current-layer="layer1" /><defs
     id="defs2"><rect
       x="262.01319"
       y="358.54437"
       width="300.62567"
       height="274.42435"
       id="rect2990" /><rect
       x="158.58693"
       y="351.64929"
       width="245.46499"
       height="182.03022"
       id="rect167" /></defs><g
     inkscape:label="Z"
     inkscape:groupmode="layer"
     id="layer1"
     transform="matrix(0.51689193,0,0,0.5117057,46.003788,80.255626)"><rect
       style="fill:#1a1a1a;stroke-width:0.260637"
       id="rect2616"
       width="108.00001"
       height="109.0946"
       x="52.175678"
       y="79.175674"
       rx="16.807947"
       ry="16.978298" /><rect
       style="fill:#ffffff;stroke-width:0.26767"
       id="rect2828"
       width="96.371918"
       height="98.513527"
       x="62.709164"
       y="82.824318"
       rx="17.421076"
       ry="17.276623" /><g
       id="g659"
       transform="matrix(5.8077279,0,0,5.2085049,-90.747773,42.669176)"><g
         id="g642"
         transform="matrix(0.22656074,0,0,0.33621602,28.120051,11.890582)"><g
           id="g640"><path
             d="m 22.862,11.151 -10.5,-11 c -0.189,-0.197 -0.534,-0.197 -0.724,0 l -10.5,11 C 1,11.296 0.961,11.509 1.04,11.693 c 0.079,0.184 0.259,0.303 0.459,0.303 h 4.5 v 11.5 c 0,0.276 0.224,0.5 0.5,0.5 h 11 c 0.276,0 0.5,-0.224 0.5,-0.5 v -11.5 h 4.5 c 0.2,0 0.381,-0.119 0.459,-0.303 0.081,-0.184 0.042,-0.398 -0.096,-0.542 z"
             id="path638" /></g></g></g></g></svg>
